<svg xmlns="http://www.w3.org/2000/svg" viewBox="0 0 128 128" width="128" height="128">
  <title>Collapse of Kingdom</title>
  <defs>
    <linearGradient id="bg" x1="0" y1="0" x2="1" y2="1">
      <stop offset="0%" stop-color="#eceff1"/>
      <stop offset="100%" stop-color="#cfd8dc"/>
    </linearGradient>
  </defs>
  <rect x="4" y="4" width="120" height="120" rx="24" fill="url(#bg)"/>
  <g fill="none" stroke="#e53935" stroke-width="3" stroke-linecap="round" stroke-linejoin="round">
    <path d="M64 108v-16"/>
    <path d="M55 99l9 9 9-9"/>
  </g>
  <g transform="rotate(22 64 84)">
    <path d="M46 76 L52 60 L58 72 L64 56 L70 72 L76 60 L82 76 Z" fill="#9e9e9e" stroke="#616161" stroke-width="2" stroke-linejoin="round"/>
    <path d="M44 76 h40 v16 h-40 z" fill="#9e9e9e" stroke="#616161" stroke-width="2"/>
    <path d="M60 62 l8 7 M68 62 l-8 7" stroke="#ef5350" stroke-width="2.5" fill="none" stroke-linecap="round"/>
  </g>
  <rect x="55" y="78" width="12" height="26" rx="2" fill="#90a4ae" stroke="#607d8b" stroke-width="2" transform="rotate(-16 61 91)"/>
  <rect x="78" y="78" width="12" height="26" rx="2" fill="#78909c" stroke="#546e7a" stroke-width="2" transform="rotate(16 84 91)"/>
  <g fill="#90a4ae">
    <path d="M40 88 l5 4 -2 7z"/>
    <path d="M86 82 l4 3 -2 5z"/>
    <path d="M70 92 l4 3 -1 6z"/>
  </g>
</svg>