<svg xmlns="http://www.w3.org/2000/svg" viewBox="0 0 128 128" width="128" height="128">
  <title>Rise of Kingdom</title>
  <defs>
    <linearGradient id="bg" x1="0" y1="0" x2="1" y2="1">
      <stop offset="0%" stop-color="#fff8e1"/>
      <stop offset="100%" stop-color="#ffecb3"/>
    </linearGradient>
  </defs>
  <rect x="4" y="4" width="120" height="120" rx="24" fill="url(#bg)"/>
  <g fill="none" stroke="#b45309" stroke-width="3" stroke-linecap="round" stroke-linejoin="round">
    <path d="M64 12v18"/>
    <path d="M55 21l9-9 9 9"/>
  </g>
  <path d="M46 60 L52 44 L58 56 L64 40 L70 56 L76 44 L82 60 Z" fill="#f59e0b" stroke="#b45309" stroke-width="2" stroke-linejoin="round"/>
  <path d="M44 60 h40 v16 h-40 z" fill="#f59e0b" stroke="#b45309" stroke-width="2"/>
  <path d="M46 76 q4 5 8 0 M54 76 q4 5 8 0 M62 76 q4 5 8 0 M70 76 q4 5 8 0" fill="none" stroke="#b45309" stroke-width="2" stroke-linecap="round"/>
  <circle cx="64" cy="52" r="3.5" fill="#c62828"/>
  <rect x="28" y="88" width="19" height="16" rx="3" fill="#b45309" opacity="0.35"/>
  <rect x="54.5" y="78" width="19" height="26" rx="3" fill="#b45309" opacity="0.55"/>
  <rect x="81" y="68" width="19" height="36" rx="3" fill="#b45309" opacity="0.8"/>
</svg>