<svg xmlns="http://www.w3.org/2000/svg" viewBox="0 0 128 128" width="128" height="128">
  <title>Wall</title>
  <defs>
    <linearGradient id="bg" x1="0" y1="0" x2="1" y2="1">
      <stop offset="0%" stop-color="#eceff1"/>
      <stop offset="100%" stop-color="#cfd8dc"/>
    </linearGradient>
  </defs>
  <rect x="4" y="4" width="120" height="120" rx="24" fill="url(#bg)"/>
  <g fill="#90a4ae" stroke="#78909c" stroke-width="2">
    <rect x="20" y="22" width="40" height="20" rx="3"/>
    <rect x="68" y="22" width="40" height="20" rx="3"/>
    <rect x="20" y="54" width="40" height="20" rx="3"/>
    <rect x="68" y="54" width="40" height="20" rx="3"/>
    <rect x="20" y="86" width="40" height="20" rx="3"/>
    <rect x="68" y="86" width="40" height="20" rx="3"/>
  </g>
  <g fill="none" stroke="#546e7a" stroke-width="3" stroke-linecap="round">
    <path d="M20 42 h20 M48 42 h60"/>
    <path d="M20 74 h20 M48 74 h60"/>
    <path d="M20 106 h20 M48 106 h60"/>
  </g>
  <path d="M40 32 a6 6 0 1 0-12 0 6 6 0 0 0 12 0z" fill="#eceff1" opacity="0.5"/>
</svg>